:SAMPLES-PER-SECOND 30
:FULLY-SPECIFIED
:DEGREES
442
root  -20.953 37.4095 14.2377 -178.735 -71.8574 172.99
RightUpLeg  -27.3057 -18.881 6.74609
RightLeg  14.9424 -10.4149 1.37834
RightFoot  3.60754 0.809889 -6.01046
RightToes  0.000482159 0.542163 -0.142577
Spine  14.3562 -8.31881 -3.87431
Spine1  9.31368 -13.5683 14.3714
HEad  7.99014 3.42059 -7.59078
LeftShoulder1  9.51887 -16.2854 -41.7331
LeftArm  22.5367 -33.3818 -60.9445
LeftForeArm  11.9535 -15.6708 -8.04248
LeftHand  -0.25398 0.0180481 5.50724
RightShoulder  4.57388 8.6009 31.8432
RightArm  -14.2922 -25.3641 25.038
RightForeArm  -9.9605 75.2586 56.7945
RightHand  -2.22276 3.76088 -27.999
LeftUpLeg  24.5644 25.5488 -0.341395
LeftLeg  21.4767 -1.07602 0.183558
LeftFoot  -19.5298 -0.317637 -6.37452
LeftToes  1.06248e-005 4.65855e-005 -8.18498e-006
443
root  -22.8987 37.2696 14.2874 175.461 -70.0622 178.897
RightUpLeg  -30.6831 -22.1644 11.5997
RightLeg  23.2306 -2.91115 -2.22496
RightFoot  4.94398 1.64811 -11.3325
RightToes  0.000482159 0.542163 -0.142577
Spine  16.8846 -8.17481 0.66187
Spine1  8.2374 -12.7826 14.6816
HEad  7.0782 2.67653 -9.1252
LeftShoulder1  9.70302 -16.4536 -42.2156
LeftArm  22.1554 -33.5262 -60.9932
LeftForeArm  11.5683 -15.9212 -7.85093
LeftHand  -0.25398 0.0180481 5.50724
RightShoulder  4.68626 8.8667 31.9401
RightArm  -14.751 -25.2888 23.86
RightForeArm  -4.54224 75.9514 61.4576
RightHand  -2.44556 4.71705 -27.9112
LeftUpLeg  21.9508 26.3147 2.42224
LeftLeg  31.6048 -0.469774 0.0838059
LeftFoot  -10.1575 0.159612 -10.0703
LeftToes  1.06248e-005 4.65855e-005 -8.18498e-006
444
root  -24.557 37.1336 14.2748 172.68 -68.4766 -178.094
RightUpLeg  -31.0671 -16.6573 10.1251
RightLeg  29.7803 -6.73395 -4.38345
RightFoot  2.66724 1.69202 -13.527
RightToes  0.000482159 0.542163 -0.142577
Spine  19.7522 -8.06686 3.0034
Spine1  7.78656 -12.3489 15.805
HEad  6.22608 2.16713 -9.6113
LeftShoulder1  9.64362 -16.5146 -41.7992
LeftArm  21.2787 -34.4721 -60.824
LeftForeArm  11.6104 -16.0112 -7.70449
LeftHand  -0.25398 0.0180481 5.50724
RightShoulder  4.82571 9.1576 32.1713
RightArm  -15.3286 -24.0213 23.6162
RightForeArm  -0.419317 76.3617 64.8119
RightHand  -2.59043 5.20725 -28.1917
LeftUpLeg  15.032 26.6445 3.6726
LeftLeg  44.9822 0.661542 1.15289
LeftFoot  4.44078 1.38923 -10.3636
LeftToes  1.06248e-005 4.65855e-005 -8.18498e-006
445
root  -25.9536 36.9792 14.2578 170.965 -67.6982 -175.693
RightUpLeg  -31.6675 -14.5875 9.84384
RightLeg  34.6888 -7.97488 -6.13556
RightFoot  -0.923988 1.18379 -12.9288
RightToes  0.000482159 0.542163 -0.142577
Spine  22.0384 -8.31776 4.80204
Spine1  7.95237 -12.3845 16.8778
HEad  5.78879 1.40331 -8.94122
LeftShoulder1  9.48357 -16.5228 -41.0324
LeftArm  21.1903 -36.0281 -60.0235
LeftForeArm  11.1679 -16.3061 -7.52747
LeftHand  -0.25398 0.0180481 5.50724
RightShoulder  4.9787 9.41529 32.5963
RightArm  -15.433 -21.9777 23.8794
RightForeArm  2.53406 76.6456 67.6043
RightHand  -2.79018 5.59967 -29.2277
LeftUpLeg  5.1421 25.5808 3.3997
LeftLeg  58.2537 1.68605 3.52331
LeftFoot  13.5624 1.86161 -8.78376
LeftToes  1.06248e-005 4.65855e-005 -8.18498e-006
446
root  -27.4153 37.1152 14.2768 170.967 -66.4915 -175.033
RightUpLeg  -30.9866 -13.6066 8.92947
RightLeg  37.027 -7.34598 -6.18753
RightFoot  -3.58511 0.716575 -10.9009
RightToes  0.000482159 0.542163 -0.142577
Spine  23.629 -8.30917 6.36221
Spine1  8.06886 -12.0956 17.0905
HEad  5.8235 0.2458 -7.84696
LeftShoulder1  9.4523 -16.5874 -40.7421
LeftArm  21.5791 -37.6574 -58.4913
LeftForeArm  10.3231 -17.0508 -7.13649
LeftHand  -0.25398 0.0180481 5.50724
RightShoulder  5.0923 9.62152 32.8563
RightArm  -15.0788 -19.6042 24.4456
RightForeArm  4.38131 76.8151 69.517
RightHand  -3.05742 6.13774 -30.4741
LeftUpLeg  -4.73419 24.8212 2.18721
LeftLeg  68.211 2.16538 6.71751
LeftFoot  12.9495 1.31819 -6.41843
LeftToes  1.06248e-005 4.65855e-005 -8.18498e-006
447
root  -28.9637 37.4971 14.3067 172.772 -63.9545 -176.569
RightUpLeg  -29.0593 -11.8978 7.09254
RightLeg  37.5781 -6.36757 -5.51803
RightFoot  -5.3572 0.441917 -9.1365
RightToes  0.000482159 0.542163 -0.142577
Spine  25.0992 -7.70408 7.08733
Spine1  8.15968 -11.1568 16.5546
HEad  6.00341 -0.757399 -6.94734
LeftShoulder1  9.52678 -16.714 -40.8108
LeftArm  20.8747 -38.8391 -56.446
LeftForeArm  9.88387 -18.2535 -6.38411
LeftHand  -0.25398 0.0180481 5.50724
RightShoulder  5.15952 9.80781 32.8179
RightArm  -14.461 -16.746 25.405
RightForeArm  3.12884 76.687 68.023
RightHand  -3.25399 6.58417 -31.1894
LeftUpLeg  -13.2324 24.8592 0.585302
LeftLeg  73.2592 2.06163 8.69188
LeftFoot  7.40824 0.619874 -4.04427
LeftToes  1.06248e-005 4.65855e-005 -8.18498e-006
448
root  -30.5006 37.8875 14.3144 175.08 -60.6154 -178.862
RightUpLeg  -26.827 -9.16473 4.86174
RightLeg  37.6416 -5.9282 -5.17058
RightFoot  -7.04146 0.241462 -7.66769
RightToes  0.000482159 0.542163 -0.142577
Spine  26.5375 -6.90342 6.96598
Spine1  8.39276 -10.1077 15.7373
HEad  6.05274 -1.10323 -6.24047
LeftShoulder1  9.54177 -16.8365 -40.6118
LeftArm  18.5932 -39.4456 -53.9973
LeftForeArm  9.82586 -19.7093 -5.48716
LeftHand  -0.25398 0.0180481 5.50724
RightShoulder  5.25364 10.0276 32.8825
RightArm  -13.4524 -13.1775 26.5311
RightForeArm  -2.68469 75.9946 61.6214
RightHand  -3.29066 6.69338 -31.2503
LeftUpLeg  -20.3854 24.2858 -0.759951
LeftLeg  73.6887 1.69198 7.67313
LeftFoot  2.76639 0.33507 -2.87397
LeftToes  1.06248e-005 4.65855e-005 -8.18498e-006
449
root  -32.0483 38.2693 14.3003 177.318 -57.4847 178.873
RightUpLeg  -24.5976 -6.29556 2.33784
RightLeg  37.2886 -5.51006 -4.77121
RightFoot  -8.49642 0.0862344 -5.78953
RightToes  0.000482159 0.542163 -0.142577
Spine  27.6353 -6.36529 6.36273
Spine1  8.53671 -9.408 14.6766
HEad  5.97679 -0.973065 -5.57086
LeftShoulder1  9.49817 -16.9485 -40.1669
LeftArm  15.7964 -39.7846 -51.1624
LeftForeArm  9.45051 -20.976 -4.89406
LeftHand  -0.25398 0.0180481 5.50724
RightShoulder  5.39457 10.2857 33.177
RightArm  -11.9488 -9.20309 27.5599
RightForeArm  -10.8982 74.529 52.4431
RightHand  -3.23998 6.61282 -30.9904
LeftUpLeg  -26.4169 22.0913 -1.57838
LeftLeg  70.4802 1.40104 5.32672
LeftFoot  0.564811 0.214682 -2.09379
LeftToes  1.06248e-005 4.65855e-005 -8.18498e-006
450
root  -33.5913 38.6271 14.294 179.16 -54.7313 176.908
RightUpLeg  -22.4936 -3.76052 -0.323153
RightLeg  36.7554 -4.87552 -4.17592
RightFoot  -9.60521 -0.00647973 -3.87585
RightToes  0.000482159 0.542163 -0.142577
Spine  28.5231 -6.09647 5.67096
Spine1  8.58946 -8.9373 13.3245
HEad  5.8471 -0.801641 -5.00641
LeftShoulder1  9.49197 -17.0745 -39.8677
LeftArm  13.3042 -40.1671 -48.358
LeftForeArm  8.94981 -21.5865 -4.71085
LeftHand  -0.25398 0.0180481 5.50724
RightShoulder  5.48242 10.5025 33.1986
RightArm  -10.2198 -5.33174 28.7122
RightForeArm  -18.0835 72.3879 43.6938
RightHand  -3.1858 6.56919 -30.6066
LeftUpLeg  -30.7449 18.8886 -1.44422
LeftLeg  64.1647 1.67366 4.38694
LeftFoot  -1.62863 0.123047 -1.3295
LeftToes  1.06248e-005 4.65855e-005 -8.18498e-006
451
root  -35.1262 38.8123 14.3109 -179.928 -51.7934 175.645
RightUpLeg  -20.7512 -1.31119 -2.68143
RightLeg  37.0331 -4.35943 -3.79964
RightFoot  -11.1423 -0.0710008 -2.66437
RightToes  0.000482159 0.542163 -0.142577
Spine  29.4213 -5.81188 5.25928
Spine1  8.79569 -8.3735 11.9443
HEad  5.71272 -0.717939 -4.58416
LeftShoulder1  9.48484 -17.1817 -39.6072
LeftArm  10.6962 -40.4785 -46.1798
LeftForeArm  9.42345 -21.4894 -4.68995
LeftHand  -0.25398 0.0180481 5.50724
RightShoulder  5.45625 10.618 32.6931
RightArm  -8.55137 -1.83839 30.2264
RightForeArm  -22.9186 69.8991 36.7826
RightHand  -3.11894 6.54659 -30.0534
LeftUpLeg  -32.6884 16.3638 0.0435642
LeftLeg  54.9792 2.95778 4.98744
LeftFoot  -4.04085 0.0822132 -0.922039
LeftToes  1.06248e-005 4.65855e-005 -8.18498e-006
452
root  -36.6906 38.8258 14.321 -179.638 -48.3015 174.95
RightUpLeg  -19.3888 1.48121 -4.75287
RightLeg  37.9024 -3.80472 -3.45285
RightFoot  -13.1505 -0.114306 -1.64476
RightToes  0.000482159 0.542163 -0.142577
Spine  30.1644 -5.32035 4.94798
Spine1  9.14538 -7.54238 10.4669
HEad  5.77149 -0.723223 -4.09443
LeftShoulder1  9.41527 -17.2346 -39.1759
LeftArm  7.62144 -40.3655 -44.4339
LeftForeArm  10.8104 -21.0918 -4.6783
LeftHand  -0.25398 0.0180481 5.50724
RightShoulder  5.39324 10.6851 32.0655
RightArm  -6.85065 1.16527 31.8397
RightForeArm  -25.7849 67.3305 31.6213
RightHand  -3.01743 6.47593 -29.2919
LeftUpLeg  -32.4983 15.5624 2.32763
LeftLeg  43.0647 4.61597 5.02166
LeftFoot  -4.52628 0.086271 -0.984538
LeftToes  1.06248e-005 4.65855e-005 -8.18498e-006
453
root  -38.2831 38.7615 14.306 -179.539 -44.1449 174.751
RightUpLeg  -18.5998 4.78871 -6.62777
RightLeg  38.7084 -2.69786 -2.59579
RightFoot  -14.8212 -0.102733 -0.0820389
RightToes  0.000482159 0.542163 -0.142577
Spine  30.6252 -4.68521 4.64227
Spine1  9.61269 -6.35314 8.40155
HEad  6.20386 -0.836024 -3.34569
LeftShoulder1  9.37265 -17.2545 -38.9381
LeftArm  4.99195 -39.7199 -42.1546
LeftForeArm  11.2738 -20.9572 -4.64895
LeftHand  -0.25398 0.0180481 5.50724
RightShoulder  5.36995 10.7922 31.615
RightArm  -4.85547 3.77759 33.299
RightForeArm  -27.2173 64.6372 27.4911
RightHand  -2.89355 6.41698 -28.2857
LeftUpLeg  -30.6804 16.1194 4.9813
LeftLeg  28.9607 5.12026 3.52378
LeftFoot  -3.57424 0.12206 -1.47985
LeftToes  1.06248e-005 4.65855e-005 -8.18498e-006
454
root  -39.9794 38.5671 14.297 -179.974 -39.1022 175.355
RightUpLeg  -18.5033 8.40078 -8.16755
RightLeg  39.988 -1.12832 -1.29697
RightFoot  -16.3337 -0.0508842 1.39421
RightToes  0.000482159 0.542163 -0.142577
Spine  30.9311 -4.11666 4.97356
Spine1  10.3685 -4.83292 5.68925
HEad  6.77972 -0.740924 -2.46761
LeftShoulder1  9.43034 -17.2227 -39.2701
LeftArm  3.24865 -38.6086 -38.8512
LeftForeArm  10.1783 -21.5519 -4.56637
LeftHand  -0.25398 0.0180481 5.50724
RightShoulder  5.36271 10.9398 31.1769
RightArm  -2.44271 6.50157 34.8584
RightForeArm  -27.5421 61.4704 23.7002
RightHand  -2.71329 6.31172 -26.8304
LeftUpLeg  -27.0749 15.5136 9.12601
LeftLeg  15.2213 5.74277 1.65182
LeftFoot  -3.76648 0.167714 -2.21161
LeftToes  1.06248e-005 4.65855e-005 -8.18498e-006
455
root  -41.8328 38.2493 14.3335 179.218 -33.4886 176.137
RightUpLeg  -18.504 11.9912 -9.89056
RightLeg  41.4788 0.323348 0.0115128
RightFoot  -18.2192 0.0206156 2.38424
RightToes  0.000482159 0.542163 -0.142577
Spine  31.396 -3.7606 5.53866
Spine1  11.3159 -3.39791 2.82343
HEad  7.04085 0.0625218 -1.82896
LeftShoulder1  9.47965 -17.0266 -39.9137
LeftArm  0.77284 -36.8612 -35.2035
LeftForeArm  9.73213 -23.1145 -4.51516
LeftHand  -0.25398 0.0180481 5.50724
RightShoulder  5.33732 11.0947 30.6019
RightArm  0.506955 9.85067 36.7052
RightForeArm  -27.3112 57.6844 20.1804
RightHand  -2.42855 5.96474 -24.8314
LeftUpLeg  -22.4783 11.0177 14.7445
LeftLeg  6.55075 9.58965 0.525061
LeftFoot  -4.67789 0.211875 -3.20849
LeftToes  1.06248e-005 4.65855e-005 -8.18498e-006
456
root  -43.7678 37.8937 14.4507 178.86 -28.4349 176.245
RightUpLeg  -18.64 15.3592 -12.6126
RightLeg  42.5152 1.53062 1.20947
RightFoot  -20.1286 0.211995 4.47927
RightToes  0.000482159 0.542163 -0.142577
Spine  32.4643 -3.56323 4.92865
Spine1  11.9475 -2.65912 0.813747
HEad  6.80263 1.32248 -1.71383
LeftShoulder1  9.43994 -16.6426 -40.5631
LeftArm  -3.86782 -34.3836 -32.3418
LeftForeArm  11.5545 -25.3755 -4.81969
LeftHand  -0.25398 0.0180481 5.50724
RightShoulder  5.28717 11.299 29.745
RightArm  4.15233 13.7578 38.4499
RightForeArm  -27.3396 53.6955 17.3062
RightHand  -2.16176 5.61118 -22.9094
LeftUpLeg  -20.6143 10.6853 15.8473
LeftLeg  6.2511 8.21904 1.04108
LeftFoot  -3.00973 0.407004 -5.20314
LeftToes  1.06248e-005 4.65855e-005 -8.18498e-006
